<?xml version="1.0" standalone="no"?>
<!DOCTYPE svg PUBLIC "-//W3C//DTD SVG 20010904//EN"
 "http://www.w3.org/TR/2001/REC-SVG-20010904/DTD/svg10.dtd">
<svg version="1.0" xmlns="http://www.w3.org/2000/svg"
 width="260.000000pt" height="260.000000pt" viewBox="0 0 260.000000 260.000000"
 preserveAspectRatio="xMidYMid meet">
<metadata>
Created by potrace 1.14, written by Peter Selinger 2001-2017
</metadata>
<g transform="translate(0.000000,260.000000) scale(0.100000,-0.100000)"
fill="#000000" stroke="none">
<path d="M1066 2584 c-244 -44 -479 -163 -661 -336 -186 -176 -309 -387 -373
-638 -40 -157 -40 -463 0 -620 64 -251 187 -462 373 -638 185 -175 419 -293
669 -337 115 -20 337 -20 452 0 508 89 913 468 1042 975 25 97 27 121 27 310
0 189 -2 213 -27 310 -64 251 -187 462 -373 638 -185 175 -419 293 -669 337
-111 19 -352 19 -460 -1z m304 -934 l0 -80 -135 0 -135 0 0 -340 0 -340 -90 0
-90 0 0 340 0 340 -130 0 -130 0 0 80 0 80 355 0 355 0 0 -80z m400 -45 l0
-95 90 0 90 0 0 -70 0 -70 -90 0 -90 0 0 -145 c0 -142 1 -147 25 -170 26 -27
73 -33 119 -15 l26 10 0 -74 c0 -74 0 -74 -31 -85 -18 -6 -59 -11 -93 -11
-114 1 -186 57 -206 160 -5 29 -10 115 -10 191 l0 139 -60 0 -60 0 0 70 0 70
60 0 60 0 0 88 c0 49 3 92 7 95 3 4 42 7 85 7 l78 0 0 -95z"/>
</g>
</svg>
